<?xml version="1.0" standalone="no"?>
<!DOCTYPE svg PUBLIC "-//W3C//DTD SVG 20010904//EN"
 "http://www.w3.org/TR/2001/REC-SVG-20010904/DTD/svg10.dtd">
<svg version="1.0" xmlns="http://www.w3.org/2000/svg"
 width="628.000000pt" height="628.000000pt" viewBox="0 0 628.000000 628.000000"
 preserveAspectRatio="xMidYMid meet">
<metadata>
Created by potrace 1.14, written by Peter Selinger 2001-2017
</metadata>
<g transform="translate(0.000000,628.000000) scale(0.100000,-0.100000)"
fill="#000000" stroke="none">
<path d="M200 5609 l0 -676 33 -29 c18 -16 73 -63 122 -104 50 -41 92 -77 95
-80 3 -3 46 -39 95 -80 50 -41 92 -77 95 -80 3 -3 73 -62 155 -130 83 -69 155
-129 161 -135 6 -6 30 -27 54 -46 23 -18 52 -43 65 -54 12 -11 42 -36 65 -55
23 -19 53 -44 65 -55 13 -11 42 -36 65 -54 24 -19 48 -40 54 -45 6 -6 81 -69
166 -140 85 -72 164 -138 175 -147 11 -10 67 -58 125 -106 58 -48 110 -92 116
-98 7 -5 31 -26 54 -45 24 -19 50 -42 59 -50 9 -8 37 -31 61 -50 25 -19 50
-40 55 -46 8 -9 193 -164 279 -234 10 -8 23 -20 30 -25 6 -6 54 -46 106 -90
52 -44 97 -82 100 -85 3 -3 32 -27 65 -55 33 -27 65 -54 71 -60 6 -5 28 -23
49 -40 21 -16 43 -35 49 -40 6 -6 54 -46 106 -90 52 -44 97 -82 100 -85 3 -3
17 -15 31 -28 l26 -23 44 37 c24 19 64 52 88 72 25 21 49 42 55 47 6 6 52 44
101 85 50 41 96 80 103 87 7 7 33 29 59 50 26 21 58 48 72 61 14 13 57 49 96
80 38 31 77 63 86 72 8 8 35 31 58 50 24 19 48 40 55 45 6 6 40 35 76 65 36
30 67 57 70 60 3 3 32 27 65 55 33 27 65 54 71 60 6 5 33 28 60 50 26 22 80
67 119 100 38 33 97 83 130 110 33 27 65 54 71 60 6 5 30 26 54 45 24 19 58
49 77 65 18 17 39 35 46 40 35 28 134 111 148 124 9 9 38 34 64 56 50 41 108
89 184 153 24 20 49 42 55 47 6 6 40 35 76 64 36 30 67 57 70 60 3 4 25 22 50
41 24 19 52 42 60 50 9 8 38 33 64 55 27 22 54 45 60 50 6 6 38 33 71 61 78
65 105 87 119 99 25 22 142 121 165 140 14 11 42 36 63 55 l38 35 -2 672 -3
671 -46 -41 c-57 -52 -165 -148 -200 -179 -104 -90 -236 -205 -249 -218 -9 -8
-50 -44 -90 -80 -41 -36 -87 -77 -103 -92 -16 -16 -30 -28 -33 -28 -2 0 -12
-8 -22 -17 -10 -10 -49 -45 -86 -78 -38 -33 -74 -65 -81 -72 -7 -6 -34 -30
-61 -53 -68 -58 -172 -150 -204 -180 -14 -14 -53 -47 -85 -75 -33 -27 -67 -57
-75 -65 -18 -17 -125 -111 -210 -185 -30 -27 -87 -77 -126 -112 -40 -35 -83
-73 -95 -84 -62 -54 -145 -126 -165 -144 -33 -31 -154 -138 -178 -158 -27 -22
-65 -56 -152 -133 -38 -34 -130 -115 -204 -180 -74 -65 -140 -123 -146 -129
-27 -25 -150 -132 -177 -155 -16 -14 -42 -36 -56 -50 -14 -14 -41 -38 -59 -53
l-34 -27 -81 72 c-45 40 -87 78 -93 83 -6 6 -37 33 -69 60 -32 28 -63 55 -69
61 -6 5 -49 43 -96 84 -47 41 -90 79 -96 85 -6 5 -32 28 -58 50 -26 22 -65 56
-86 75 -21 19 -51 46 -67 60 -75 65 -181 158 -208 182 -16 14 -41 36 -55 48
-36 31 -150 131 -176 155 -12 11 -48 43 -80 70 -31 28 -69 61 -83 74 -14 13
-50 44 -80 70 -29 25 -61 53 -71 61 -29 26 -162 144 -188 168 -14 12 -48 41
-75 65 -28 23 -55 47 -61 52 -6 6 -47 42 -91 80 -44 39 -82 72 -85 75 -3 3
-36 32 -75 65 -38 33 -77 67 -85 75 -8 8 -46 42 -85 75 -38 33 -75 64 -81 70
-67 60 -156 138 -184 161 -19 16 -39 34 -45 40 -10 11 -60 55 -174 153 -30 25
-68 60 -86 76 -17 17 -58 52 -91 80 -32 27 -62 54 -66 60 -4 5 -8 -294 -8
-666z"/>
<path d="M201 2599 l0 -1234 227 -187 c125 -103 241 -199 257 -213 43 -37 63
-54 125 -105 30 -25 61 -50 68 -57 7 -7 34 -29 60 -50 26 -21 52 -43 58 -49 6
-5 31 -26 54 -45 23 -18 50 -41 59 -50 9 -9 28 -24 44 -34 l27 -17 1 33 c1 19
1 38 0 42 -1 5 -1 225 0 490 0 265 0 492 0 505 l-1 23 28 -20 c15 -10 45 -35
67 -55 22 -20 45 -39 50 -43 14 -11 129 -107 135 -113 3 -3 46 -39 95 -80 50
-41 92 -77 95 -80 3 -3 73 -61 155 -130 83 -69 152 -127 155 -130 3 -3 46 -39
95 -80 50 -41 92 -77 95 -80 3 -4 34 -30 70 -59 36 -30 67 -57 70 -60 3 -3 30
-26 60 -51 30 -25 57 -47 60 -50 3 -3 61 -52 130 -109 69 -58 127 -107 130
-110 3 -4 57 -49 120 -101 128 -106 144 -119 180 -151 14 -11 45 -38 69 -58
25 -20 58 -48 75 -64 17 -15 33 -27 36 -27 4 0 51 39 150 124 14 11 52 44 85
71 33 28 65 55 71 61 6 5 30 26 54 45 23 18 52 43 64 54 12 12 44 39 71 60 27
22 57 47 66 55 9 8 27 24 40 35 119 99 164 139 167 146 2 5 8 9 14 9 6 0 18 8
27 18 9 9 72 64 141 122 69 57 127 107 130 110 3 3 30 25 60 50 30 25 57 47
60 50 6 6 124 107 155 131 11 10 52 44 90 76 39 33 81 68 93 79 13 10 33 27
45 38 12 10 87 73 167 140 80 66 159 133 175 148 17 16 33 28 36 28 3 0 6
-241 5 -536 -1 -295 2 -540 5 -545 5 -8 39 18 149 115 14 12 57 48 95 81 39
33 72 62 75 65 3 3 34 30 70 60 69 59 116 99 134 115 6 6 43 37 81 70 39 33
75 64 81 70 6 5 35 30 64 55 30 25 62 53 72 62 10 10 20 18 22 18 3 0 17 12
33 28 15 15 43 39 61 53 l32 26 -2 1221 -3 1222 -46 -42 c-25 -24 -75 -68
-110 -98 -34 -30 -81 -71 -103 -91 -23 -20 -66 -58 -97 -85 -30 -27 -88 -78
-129 -114 -41 -36 -99 -87 -129 -114 -31 -27 -74 -65 -97 -85 -22 -20 -69 -61
-103 -91 -35 -30 -79 -69 -96 -85 -18 -17 -52 -46 -75 -65 -22 -19 -53 -46
-68 -60 -16 -14 -51 -45 -79 -70 -136 -121 -170 -150 -189 -167 -24 -21 -151
-133 -168 -148 -6 -6 -47 -42 -91 -80 -44 -39 -82 -72 -85 -75 -3 -3 -77 -68
-165 -145 -88 -77 -167 -148 -176 -157 -9 -10 -19 -18 -21 -18 -3 0 -23 -17
-45 -37 -38 -36 -109 -99 -197 -174 -21 -19 -56 -50 -77 -70 -21 -19 -60 -53
-86 -75 -26 -21 -56 -48 -67 -59 -12 -11 -70 -63 -130 -115 -60 -52 -119 -104
-130 -115 -12 -11 -45 -40 -75 -65 -29 -25 -64 -55 -77 -67 l-25 -23 -36 33
c-20 17 -44 39 -53 47 -8 8 -45 40 -80 70 -35 30 -75 65 -88 77 -13 12 -49 44
-79 70 -31 26 -76 67 -101 91 -25 23 -48 42 -51 42 -3 0 -36 29 -73 63 -36 34
-85 78 -108 97 -23 19 -56 49 -74 65 -18 17 -46 41 -62 54 -29 25 -260 227
-280 246 -6 5 -42 37 -79 70 -38 33 -79 69 -91 80 -12 11 -46 40 -74 64 -29
25 -58 50 -64 55 -6 6 -47 43 -91 81 -44 39 -82 72 -85 75 -3 3 -41 36 -85 75
-44 38 -82 72 -85 75 -3 3 -34 30 -70 60 -35 30 -74 64 -85 75 -11 11 -49 45
-85 75 -35 30 -72 62 -80 70 -19 17 -50 45 -170 149 -47 41 -87 77 -90 80 -3
3 -39 35 -80 71 -41 35 -77 67 -80 70 -3 3 -39 34 -80 69 -41 36 -82 71 -90
80 -9 9 -45 41 -80 71 -89 76 -120 102 -139 120 -9 8 -31 28 -49 44 l-32 30 1
-1235z"/>
</g>
</svg>
